<?xml version="1.0" standalone="no"?>
<!DOCTYPE svg PUBLIC "-//W3C//DTD SVG 20010904//EN"
 "http://www.w3.org/TR/2001/REC-SVG-20010904/DTD/svg10.dtd">
<svg version="1.0" xmlns="http://www.w3.org/2000/svg"
 width="699.000000pt" height="357.000000pt" viewBox="0 0 699.000000 357.000000"
 preserveAspectRatio="xMidYMid meet">
<metadata>
Created by potrace 1.16, written by Peter Selinger 2001-2019
</metadata>
<g transform="translate(0.000000,357.000000) scale(0.100000,-0.100000)"
fill="#000000" stroke="none">
<path d="M1746 3263 c14 -16 37 -39 50 -53 14 -14 31 -38 39 -53 12 -23 12
-27 0 -27 -21 0 -28 -19 -15 -35 7 -8 9 -22 6 -32 -5 -12 3 -26 28 -48 20 -16
37 -37 38 -45 2 -8 24 -29 49 -47 59 -41 329 -311 329 -329 0 -8 3 -14 8 -14
11 0 62 -96 62 -118 0 -11 -7 -28 -16 -37 -9 -8 -13 -22 -10 -30 4 -10 -4 -9
-31 6 -19 11 -40 18 -47 15 -6 -2 3 -10 20 -17 17 -7 36 -20 42 -30 10 -16 9
-16 -21 -1 -18 8 -34 18 -37 21 -9 11 -61 31 -78 30 -13 0 -12 -3 6 -11 12 -6
22 -14 22 -18 0 -9 -37 -20 -70 -20 -14 0 -47 11 -75 25 -65 32 -89 33 -79 3
4 -13 12 -27 18 -31 6 -4 -2 -5 -19 -1 -38 9 -85 35 -85 49 0 5 -14 16 -32 24
-28 13 -32 12 -45 -4 -7 -11 -13 -23 -13 -28 0 -12 -97 -2 -114 11 -14 12
-126 3 -126 -11 0 -6 21 -7 56 -3 31 3 61 2 68 -3 6 -5 32 -13 59 -19 46 -9
48 -9 68 19 23 32 38 29 83 -15 13 -14 42 -30 65 -37 39 -11 42 -15 39 -43 -1
-17 1 -62 5 -101 6 -50 4 -90 -7 -141 -18 -84 -13 -108 27 -151 25 -27 28 -35
17 -48 -7 -8 -10 -18 -7 -21 4 -5 -8 -63 -27 -120 l-6 -21 67 18 c38 10 93 24
123 32 30 9 107 29 170 46 63 17 162 45 220 61 253 74 273 76 278 27 2 -32
-11 -42 -79 -60 -31 -8 -66 -24 -78 -36 -11 -11 -30 -21 -40 -21 -19 0 -31
-18 -31 -48 0 -10 -11 -34 -25 -54 -13 -19 -30 -54 -37 -77 -9 -29 -18 -41
-32 -41 -13 0 -16 -3 -9 -12 6 -7 13 -25 17 -40 10 -42 36 -25 36 23 0 43 12
49 37 19 26 -30 33 -25 33 28 1 43 2 45 15 28 34 -45 27 -125 -20 -240 -7 -15
-4 -17 11 -13 10 3 92 27 181 54 l162 48 26 92 c14 51 24 97 21 102 -3 5 1 14
9 21 7 6 21 34 30 61 10 30 22 49 32 49 11 0 14 7 9 28 -5 25 -5 26 6 5 6 -13
15 -23 20 -23 4 0 9 10 9 23 1 16 2 18 6 5 7 -28 23 -21 24 10 0 26 1 26 9 5
15 -36 33 -28 25 10 -9 40 -12 44 -26 30 -6 -6 -18 -9 -25 -6 -9 3 -14 -2 -14
-13 0 -15 -2 -16 -9 -5 -7 11 -15 11 -39 3 -17 -6 -33 -8 -37 -4 -3 3 -8 -4
-12 -16 -5 -20 -10 -22 -37 -16 -43 9 -97 38 -120 63 l-20 22 95 -5 c131 -5
194 4 194 28 0 39 -31 44 -168 28 -188 -21 -191 2 -9 73 l87 34 -60 1 -60 2
64 31 c36 17 112 50 170 74 58 23 101 43 94 43 -6 0 -24 -5 -39 -10 -24 -9
-31 -7 -58 19 -18 16 -63 40 -105 54 -128 45 -125 42 -456 449 -60 74 -126
148 -146 163 -20 15 -42 37 -49 50 -7 13 -22 27 -34 32 -20 10 -19 11 12 27
18 9 37 14 42 11 5 -3 125 -148 267 -322 142 -175 264 -324 271 -333 23 -26 5
35 -39 135 -186 420 -576 721 -1034 800 -49 8 -113 15 -142 15 l-52 0 25 -27z"/>
<path d="M6040 2752 c0 -5 -14 -15 -30 -22 -43 -18 -44 -25 -6 -54 l34 -26 47
21 c26 11 49 19 51 16 2 -2 -76 -39 -173 -81 -111 -48 -193 -90 -217 -112 -22
-19 -37 -34 -34 -34 2 0 32 11 67 25 34 14 93 32 132 40 49 11 76 22 92 39 24
27 136 76 174 76 30 0 29 11 -4 41 -35 31 -133 84 -133 71z"/>
<path d="M5835 2660 c-49 -21 -91 -42 -92 -47 -2 -4 7 -21 20 -36 l22 -28 90
36 c50 20 101 40 114 46 l23 10 -37 29 c-21 17 -41 30 -44 29 -3 0 -46 -18
-96 -39z"/>
<path d="M6233 2183 c-34 -14 -61 -30 -60 -36 1 -6 -11 -13 -28 -17 -16 -4
-59 -22 -95 -40 -97 -49 -178 -77 -287 -99 -54 -12 -174 -37 -268 -56 -93 -20
-190 -40 -215 -45 -25 -5 -85 -18 -133 -28 -70 -15 -94 -16 -120 -7 -18 6 -39
9 -46 7 -8 -3 -11 0 -7 6 3 6 2 13 -3 16 -5 4 -12 2 -15 -3 -7 -11 16 -31 44
-36 13 -2 25 -7 29 -11 3 -4 -1 -4 -9 -2 -8 3 -37 -3 -65 -13 l-50 -19 -48 25
c-61 31 -72 31 -52 1 10 -14 12 -27 7 -30 -6 -3 -66 -17 -135 -31 -68 -13
-138 -30 -153 -36 -16 -6 -59 -10 -95 -10 -37 1 -78 -3 -92 -8 -22 -9 -26 -7
-31 15 -6 22 -8 23 -29 10 -12 -8 -93 -33 -180 -55 -87 -23 -193 -52 -235 -66
-42 -13 -91 -26 -109 -30 -53 -11 -108 -58 -138 -119 -24 -48 -27 -65 -23
-128 2 -50 10 -86 25 -115 12 -22 19 -44 16 -47 -4 -3 -27 -7 -52 -7 -25 -1
-59 -5 -76 -9 l-30 -7 30 -9 c17 -5 77 -9 135 -9 111 1 166 14 267 62 131 63
156 172 69 302 l-34 50 27 5 c14 3 112 17 216 31 105 15 249 42 321 61 72 18
209 47 305 63 96 17 282 48 414 71 472 80 578 103 710 155 90 36 148 67 210
115 58 45 174 160 160 159 -6 0 -38 -12 -72 -26z"/>
<path d="M3416 2016 c-52 -12 -80 -39 -116 -111 -11 -22 -20 -34 -20 -27 0 25
-20 11 -21 -15 l0 -28 -10 24 c-15 38 -35 12 -21 -27 9 -25 5 -45 -19 -114
-16 -45 -29 -91 -29 -100 0 -9 -7 -21 -15 -26 -20 -10 77 -43 133 -44 38 -1
126 32 105 39 -6 2 -26 -3 -43 -12 -29 -15 -33 -15 -49 -1 -10 9 -22 16 -28
16 -12 0 26 139 51 188 l16 32 -47 -5 -48 -5 35 12 c19 6 37 14 40 17 3 3 12
6 20 6 11 0 14 9 12 35 l-2 35 15 -33 c18 -40 36 -34 30 11 l-5 32 12 -27 c7
-16 15 -28 20 -28 12 0 10 54 -4 68 -8 8 -5 19 14 44 33 45 41 58 31 57 -4 -1
-30 -7 -57 -13z"/>
<path d="M2420 1755 c-52 -12 -171 -40 -265 -60 -166 -37 -171 -39 -210 -79
-22 -22 -33 -36 -25 -31 8 4 2 -6 -14 -23 -16 -17 -33 -29 -37 -26 -5 3 -6 -3
-2 -12 4 -11 3 -15 -4 -11 -6 4 -14 1 -16 -5 -4 -10 -6 -10 -6 0 -1 6 -6 12
-12 12 -5 0 -8 -4 -5 -8 2 -4 -11 -6 -30 -4 -23 3 -41 -1 -53 -13 -19 -17 -39
-6 -26 15 3 6 0 10 -7 10 -8 0 -29 16 -48 35 -30 31 -60 40 -44 13 4 -7 2 -8
-4 -4 -7 4 -12 1 -12 -10 0 -11 6 -15 20 -11 14 4 28 -4 46 -26 l26 -31 -44
-39 c-46 -41 -181 -127 -201 -127 -7 0 -34 -11 -61 -25 -27 -13 -53 -22 -58
-19 -4 3 -8 1 -8 -4 0 -11 -39 -21 -113 -29 l-48 -5 3 -46 c3 -46 4 -48 58
-74 30 -15 67 -30 82 -33 15 -3 53 -29 85 -59 49 -45 62 -52 83 -45 14 4 77
23 140 42 63 20 221 68 350 107 613 186 614 186 604 209 -14 32 -16 82 -4 96
27 32 1 24 -41 -14 l-44 -38 1 26 c0 15 9 39 19 54 14 23 16 32 7 52 -7 14
-18 25 -27 25 -20 0 -20 -2 22 77 87 162 88 164 46 162 -16 -1 -71 -11 -123
-24z"/>
<path d="M3168 1414 c-60 -19 -108 -39 -108 -44 0 -14 67 -23 122 -17 39 5 62
2 100 -15 47 -20 49 -20 68 -3 31 28 24 42 -25 56 -46 14 -54 26 -33 47 20 20
-7 14 -124 -24z"/>
<path d="M2885 1333 c-49 -13 -153 -43 -230 -67 -77 -24 -162 -49 -190 -56
-67 -16 -773 -214 -902 -252 -92 -28 -101 -33 -92 -49 8 -15 -1 -30 -50 -81
l-59 -62 -58 19 c-32 11 -73 30 -92 43 -23 16 -41 20 -59 16 l-26 -7 34 -29
c50 -42 161 -114 200 -131 32 -13 321 -34 291 -21 -8 4 -1 14 20 28 18 12 32
29 30 38 -1 10 14 24 44 39 45 21 50 22 141 9 53 -7 119 -10 153 -6 115 13
356 109 483 193 79 52 80 52 37 13 -68 -62 -205 -152 -309 -204 -95 -48 -282
-116 -319 -116 -11 0 -25 -7 -33 -16 -10 -13 -10 -17 2 -25 38 -24 160 1 294
61 36 16 65 27 65 25 0 -8 -134 -72 -185 -88 -116 -37 -207 -50 -283 -40 -40
5 -75 6 -77 2 -3 -4 41 -10 98 -14 85 -6 116 -4 188 13 362 87 681 323 874
647 26 44 62 92 79 107 17 14 29 28 26 31 -3 2 -45 -6 -95 -20z"/>
</g>
</svg>
